<?xml version="1.0" encoding="UTF-8"?>
<svg id="_圖層_1" data-name="圖層 1" xmlns="http://www.w3.org/2000/svg" viewBox="0 0 318.53 71">
  <defs>
    <style>
      .cls-1, .cls-2, .cls-3 {
        fill: #fff;
      }

      .cls-2 {
        fill-rule: evenodd;
      }

      .cls-3 {
        stroke: #fff;
        stroke-miterlimit: 10;
      }
    </style>
  </defs>
  <g>
    <path class="cls-2" d="m35.01,42.35h6.64c2.56.15,2.8,2.69,0,2.95h-6.64v-2.95m-1.85-1.56h9.49c3.64.2,3.98,5.54,0,5.91h-9.49v-5.91m1.93-5.27h5.4c1.84.21,2.06,2.57,0,3.07h-5.36l-.04-3.07m-1.99-1.67h8.52c2.92.33,3.26,5.5,0,6.29h-8.47l-.06-6.29m-3.56-.78c4.84,0,9.69,0,14.53,0,4.5.41,3.71,5.2,1.22,6.52,4.75,1.8,4.05,8.15-.92,8.47h-14.83v-14.98m-1.97,9.23v2.87c-3.91.76-7.82,1.59-11.05-1.51-2.4-2.64-2.44-5.71-2.57-8.78h2.43c-.74,10.14,7.46,11.26,11.2,7.42m-3.33-26.19v3.04h3.18c1.22.39,2.54.6,2.16,3.74v8.36h2.54v-11.96c.02-2.71-1.34-3.4-3.34-3.19h-4.54m-1.67-1.66v6.36h4.79v18.92c.07,2.84-8.26,5.7-9.22-2.37l-.06-4.02h-6.11c-.12,10.47,3.74,16.19,15.59,13.8.2,1.68.65,2.91,2.87,2.87h14.53c6.28-.29,7.77-7.41,3.94-10.74,2.01-5.25-1.04-7.53-4.6-7.88h-10.08v-12.86c-.04-2.64-1.14-4.37-4.54-4.09h-7.12"/>
    <path class="cls-2" d="m32.62,6.81c14.13,0,25.65,12.74,25.65,28.34s-11.53,28.36-25.65,28.36S6.97,50.78,6.97,35.15,18.49,6.81,32.62,6.81m0,2.08c12.87,0,23.37,11.79,23.37,26.26s-10.5,26.29-23.37,26.29-23.36-11.81-23.36-26.29,10.5-26.26,23.36-26.26"/>
  </g>
  <g>
    <path class="cls-3" d="m67.85,50.17c0,1.57-.33,2.79-1.01,3.66-.67.87-1.57,1.31-2.69,1.31-.52,0-.95-.07-1.28-.22v-1.53c.33.24.77.36,1.3.36,1.41,0,2.11-1.18,2.11-3.55v-8.51h1.56v8.49Z"/>
    <path class="cls-3" d="m83.39,45.46l-4.38,10.96c-.78,1.96-1.88,2.93-3.3,2.93-.4,0-.73-.04-1-.12v-1.36c.33.11.63.17.9.17.77,0,1.35-.46,1.73-1.37l.76-1.79-3.72-9.43h1.7l2.58,7.27c.03.09.1.33.2.72h.06c.03-.15.09-.38.19-.7l2.71-7.29h1.58Z"/>
    <path class="cls-3" d="m97.36,50.56h-6.73c.02,1.05.31,1.86.86,2.44s1.3.86,2.25.86c1.07,0,2.06-.35,2.96-1.05v1.42c-.84.6-1.95.9-3.32.9s-2.41-.43-3.17-1.29c-.77-.86-1.15-2.07-1.15-3.62,0-1.47.42-2.67,1.26-3.59.84-.93,1.88-1.39,3.13-1.39s2.21.4,2.9,1.2c.68.8,1.02,1.91,1.02,3.33v.79Zm-1.56-1.28c0-.87-.22-1.55-.64-2.04s-1-.73-1.75-.73-1.33.26-1.83.77c-.5.51-.81,1.18-.93,2h5.15Z"/>
    <path class="cls-3" d="m109.31,50.24h-5.08v-1.19h5.08v1.19Z"/>
    <path class="cls-3" d="m117.03,54.91v-13.23h3.8c1.15,0,2.07.28,2.75.84.68.56,1.01,1.29,1.01,2.19,0,.75-.21,1.4-.61,1.96-.41.55-.97.95-1.69,1.18v.04c.9.1,1.62.44,2.16,1.01.54.57.81,1.31.81,2.22,0,1.13-.41,2.05-1.23,2.75-.82.7-1.85,1.05-3.1,1.05h-3.89Zm1.56-11.83v4.27h1.6c.86,0,1.53-.2,2.02-.61s.74-.99.74-1.73c0-1.29-.85-1.93-2.56-1.93h-1.8Zm0,5.67v4.76h2.12c.92,0,1.63-.22,2.14-.65s.76-1.02.76-1.77c0-1.56-1.07-2.34-3.22-2.34h-1.8Z"/>
    <path class="cls-3" d="m139.35,54.91h-1.53v-1.48h-.04c-.66,1.13-1.64,1.7-2.93,1.7-.95,0-1.69-.25-2.23-.75-.54-.5-.81-1.16-.81-1.98,0-1.77,1.05-2.79,3.15-3.08l2.86-.4c0-1.61-.66-2.41-1.96-2.41-1.15,0-2.18.39-3.11,1.16v-1.55c.94-.59,2.02-.89,3.24-.89,2.24,0,3.36,1.18,3.36,3.52v6.15Zm-1.53-4.78l-2.3.31c-.71.1-1.24.27-1.6.52-.36.25-.54.69-.54,1.32,0,.46.17.84.5,1.13.33.29.77.44,1.33.44.76,0,1.38-.26,1.88-.79s.74-1.19.74-2v-.94Z"/>
    <path class="cls-3" d="m159,45.46l-2.86,9.45h-1.58l-1.96-6.76c-.07-.26-.12-.55-.15-.88h-.04c-.02.22-.08.51-.2.86l-2.13,6.78h-1.53l-2.89-9.45h1.6l1.97,7.1c.06.22.11.5.13.85h.07c.02-.27.08-.56.17-.87l2.2-7.09h1.4l1.97,7.12c.06.23.11.51.14.85h.07c.01-.24.07-.52.16-.85l1.94-7.12h1.51Z"/>
    <path class="cls-3" d="m185.76,54.91h-1.56v-6.03h-6.91v6.03h-1.56v-13.23h1.56v5.8h6.91v-5.8h1.56v13.23Z"/>
    <path class="cls-3" d="m201.49,50.56h-6.73c.02,1.05.31,1.86.86,2.44s1.3.86,2.25.86c1.07,0,2.06-.35,2.96-1.05v1.42c-.84.6-1.95.9-3.32.9s-2.41-.43-3.17-1.29c-.77-.86-1.15-2.07-1.15-3.62,0-1.47.42-2.67,1.26-3.59.84-.93,1.88-1.39,3.13-1.39s2.21.4,2.9,1.2c.68.8,1.02,1.91,1.02,3.33v.79Zm-1.56-1.28c0-.87-.22-1.55-.64-2.04s-1-.73-1.75-.73-1.33.26-1.83.77c-.5.51-.81,1.18-.93,2h5.15Z"/>
    <path class="cls-3" d="m215.39,54.91h-1.53v-1.48h-.04c-.66,1.13-1.64,1.7-2.93,1.7-.95,0-1.69-.25-2.23-.75-.54-.5-.81-1.16-.81-1.98,0-1.77,1.05-2.79,3.15-3.08l2.86-.4c0-1.61-.66-2.41-1.96-2.41-1.15,0-2.18.39-3.11,1.16v-1.55c.94-.59,2.02-.89,3.24-.89,2.24,0,3.36,1.18,3.36,3.52v6.15Zm-1.53-4.78l-2.3.31c-.71.1-1.24.27-1.6.52-.36.25-.54.69-.54,1.32,0,.46.17.84.5,1.13.33.29.77.44,1.33.44.76,0,1.38-.26,1.88-.79s.74-1.19.74-2v-.94Z"/>
    <path class="cls-3" d="m231.17,54.91h-1.53v-1.61h-.04c-.71,1.22-1.8,1.83-3.28,1.83-1.2,0-2.16-.42-2.87-1.27s-1.08-2-1.08-3.46c0-1.56.4-2.81,1.19-3.76.79-.94,1.85-1.41,3.17-1.41s2.26.51,2.86,1.53h.04v-5.85h1.53v13.99Zm-1.53-4.27v-1.39c0-.76-.25-1.41-.76-1.94-.51-.53-1.15-.79-1.94-.79-.93,0-1.66.34-2.2,1.02-.53.68-.8,1.61-.8,2.81,0,1.09.26,1.95.77,2.58.51.63,1.2.95,2.06.95s1.54-.3,2.07-.91.8-1.38.8-2.31Z"/>
    <path class="cls-3" d="m246.94,54.91h-1.53v-5.44c0-1.97-.74-2.95-2.22-2.95-.74,0-1.37.28-1.88.85-.51.57-.76,1.3-.76,2.19v5.35h-1.53v-13.99h1.53v6.11h.04c.73-1.19,1.78-1.79,3.13-1.79,2.15,0,3.22,1.28,3.22,3.85v5.82Z"/>
    <path class="cls-3" d="m262.29,54.91h-1.53v-1.49h-.04c-.63,1.14-1.61,1.72-2.94,1.72-2.27,0-3.41-1.34-3.41-4.02v-5.65h1.52v5.41c0,1.99.77,2.99,2.31,2.99.75,0,1.36-.27,1.84-.82.48-.54.72-1.26.72-2.14v-5.44h1.53v9.45Z"/>
    <path class="cls-3" d="m278.05,54.91h-1.53v-5.39c0-2.01-.74-3.01-2.22-3.01-.76,0-1.39.28-1.89.85-.5.57-.75,1.29-.75,2.15v5.39h-1.53v-9.45h1.53v1.57h.04c.72-1.19,1.76-1.79,3.13-1.79,1.04,0,1.84.33,2.39,1,.55.67.83,1.63.83,2.89v5.78Z"/>
    <path class="cls-3" d="m290.12,54.82c-.36.2-.83.3-1.42.3-1.67,0-2.5-.92-2.5-2.77v-5.59h-1.64v-1.29h1.64v-2.31l1.53-.49v2.8h2.4v1.29h-2.4v5.32c0,.63.11,1.09.33,1.36.22.27.58.41,1.08.41.38,0,.72-.1,1-.31v1.29Z"/>
    <path class="cls-3" d="m304.44,50.56h-6.73c.02,1.05.31,1.86.86,2.44s1.3.86,2.25.86c1.07,0,2.06-.35,2.96-1.05v1.42c-.84.6-1.95.9-3.32.9s-2.41-.43-3.17-1.29c-.77-.86-1.15-2.07-1.15-3.62,0-1.47.42-2.67,1.26-3.59.84-.93,1.88-1.39,3.13-1.39s2.21.4,2.9,1.2c.68.8,1.02,1.91,1.02,3.33v.79Zm-1.56-1.28c0-.87-.22-1.55-.64-2.04s-1-.73-1.75-.73-1.33.26-1.83.77c-.5.51-.81,1.18-.93,2h5.15Z"/>
    <path class="cls-3" d="m316.48,46.99c-.27-.2-.65-.3-1.15-.3-.65,0-1.2.3-1.63.91s-.66,1.44-.66,2.49v4.82h-1.53v-9.45h1.53v1.95h.04c.22-.66.55-1.18,1-1.55.45-.37.95-.56,1.5-.56.4,0,.7.04.91.13v1.57Z"/>
  </g>
  <g>
    <path class="cls-1" d="m69.09,12.08c-.23.94-.59,2.19-1.07,3.74l-.71,2.29v18.69h-2.41v-13.02c-.21.4-.52.94-.95,1.63l-1.26-2.75c1.47-2.8,2.82-6.54,4.05-11.2l2.35.63Zm5.89,19.32c-1.91,2.07-3.8,3.71-5.69,4.92l-1.72-1.89c1.63-.94,3.44-2.48,5.45-4.6l1.96,1.57Zm3.15-17.3c-.45,5.7-3.02,9.83-7.72,12.39l-1.35-1.81c1.77-1.09,3.08-2.14,3.95-3.13-.25-.26-.98-.89-2.17-1.89-.51.73-.97,1.31-1.36,1.75l-1.51-1.7c1.76-2.25,3.14-4.94,4.14-8.07l2.23.57c-.34,1.04-.56,1.66-.66,1.88h4.46Zm9.81,15.21h-8.69v7.49h-2.54v-7.49h-8.36v-2.33h8.36v-2.72h2.54v2.72h8.69v2.33Zm-12.52-12.95h-2.72c-.44.88-.68,1.35-.71,1.42.69.5,1.45,1.13,2.29,1.89.47-.85.85-1.95,1.15-3.31Zm12.32,6.63h-2.73v3.14h-2.38v-3.14h-4.39l.95-5.94h-.6v-2.26h4.04v-3.04h2.38v3.04h2.5v2.26h-2.5v3.66h2.73v2.28Zm.38,11.72l-1.82,1.72c-1.43-1.61-3.27-3.2-5.51-4.77l1.72-1.81c2.29,1.61,4.16,3.22,5.61,4.85Zm-5.5-14v-3.66h-1.12l-.56,3.66h1.68Z"/>
    <path class="cls-1" d="m103.45,31.72h-4.47v5.02h-2.35v-5.02h-4.95v-2.27h4.95v-2.3h-4.35v-2.23h2.22c-.23-1.25-.56-2.48-.97-3.69h-1.78v-2.34h4.82v-2.1h-4.05v-2.27h4.05v-2.75h2.41v2.75h3.79v2.27h-3.79v2.1h4.36v2.34h-1.32c-.23.92-.61,2.14-1.12,3.69h1.98v2.23h-3.9v2.3h4.47v2.27Zm-3.87-10.49h-3.53c.26.98.53,2.21.8,3.69h1.58c.47-1.21.85-2.43,1.15-3.69Zm17.4,13.56l-1.58,2c-1.69-1.25-2.92-2.3-3.67-3.15-.92,1.23-1.9,2.3-2.96,3.2l-1.56-1.93c1.3-1.03,2.32-2.08,3.06-3.15-1.42-2.22-2.37-5.02-2.85-8.41h-.71v13.37h-2.48V12.13h11.4c0,1.46-.05,2.79-.15,4-.1,1.21-.28,1.97-.53,2.29-.25.32-.53.6-.83.83s-1.14.36-2.52.36c-.42,0-.87-.01-1.36-.04l-.83-2.27c.5.02,1.43.03,2.82.03.21,0,.38-.1.53-.3.15-.2.25-1.02.29-2.46h-6.34v6.43h8.96c-.36,4.22-1.2,7.71-2.54,10.46.99,1.16,2.28,2.27,3.85,3.32Zm-4-11.45h-3.18c.35,2.39.96,4.35,1.81,5.86.62-1.52,1.08-3.48,1.37-5.86Z"/>
    <path class="cls-1" d="m143.93,28.45h-9.86v8.28h-2.63v-8.28h-9.81v-12.13h9.81v-4.61h2.63v4.61h9.86v12.13Zm-12.49-2.54v-7.07h-7.15v7.07h7.15Zm9.84,0v-7.07h-7.21v7.07h7.21Z"/>
    <path class="cls-1" d="m173.74,15.9h-24.29v-2.16h11.06c-.18-.51-.47-1.11-.87-1.78l2.52-.46c.44.85.76,1.6.95,2.24h10.63v2.16Zm-1.07,18.63c0,.65-.26,1.18-.79,1.6s-1.8.64-3.84.66l-.91-2.47c.65.06,1.19.08,1.63.08.61,0,.99-.05,1.15-.14.16-.09.24-.23.24-.42v-7.09h-17.29v10.04h-2.5v-12.2h22.3v9.94Zm-2.76-11.37h-16.79v-5.86h16.79v5.86Zm-2.36,10.77h-11.94v-5.75h11.94v5.75Zm-.28-12.81v-1.78h-11.48v1.78h11.48Zm-2.24,10.82v-1.81h-6.91v1.81h6.91Z"/>
    <path class="cls-1" d="m184.29,20.38c1.57,2.39,2.35,4.6,2.35,6.63,0,1.16-.26,2.07-.78,2.74-.52.67-1.5,1-2.95,1-.31,0-.62-.01-.93-.04l-.69-2.44c.7.04,1.29.06,1.78.06.69,0,1.04-.37,1.04-1.12,0-2.37-.82-4.54-2.47-6.5.65-1.62,1.32-3.68,2-6.18h-2.9v22.22h-2.5V12.13h8.05v2.38c-.53,1.79-1.21,3.75-2.02,5.86Zm9.36.98c-1.87.79-3.85,1.45-5.94,1.98l-.71-2.03c.15-.28.22-.62.22-1.01v-8.55h2.41v2.92h3.88v2.3h-3.88v3.5c1.12-.31,2.44-.76,3.97-1.35l.06,2.24Zm7.78,15.38h-2.55v-1.35h-8.62v1.35h-2.52v-11.94h3.88c.27-.59.53-1.35.77-2.29l2.36.66c-.1.53-.31,1.07-.63,1.63h7.32v11.94Zm-2.55-7.75v-1.98h-8.62v1.98h8.62Zm0,4.26v-2.08h-8.62v2.08h8.62Zm3.98-14.48c0,1.39-.2,2.39-.59,2.99-.39.6-.84.94-1.34,1.02-.5.08-1.81.13-3.92.13-1.65,0-2.48-.79-2.48-2.35v-8.8h2.48v2.92h4.58v2.3h-4.58v3.31c0,.31.15.46.45.46,1.34,0,2.19-.06,2.56-.18.37-.12.55-.95.55-2.5l2.29.72Z"/>
    <path class="cls-1" d="m219.41,15.93v5.4h-9.67v4.74c0,4.46-.49,8.11-1.47,10.96l-2.06-1.81c.8-2.52,1.21-5.86,1.21-10.02v-12.58c3.99-.16,7.5-.6,10.51-1.32.15.21.35.57.6,1.05.25.49.44.82.56,1.01-3.19.71-6.3,1.13-9.35,1.26v1.3h9.67Zm-2.33,2h-7.35v1.4h7.32l.03-1.4Zm2.93,7.81h-2.5v1.23h1.81v1.89h-1.81v1.26h1.81v2.02h-1.81v1.23h2.06v2.03h-5.92v1.26h-2.14v-8.06c-.29.36-.51.6-.66.71l-.84-2.58c.99-1.45,1.78-3.14,2.36-5.06l2.07.6c-.2.64-.38,1.15-.55,1.5h1.57c-.06-.47-.21-.97-.45-1.5l2.17-.31c.26.61.42,1.21.46,1.81h2.35v1.95Zm-4.54,1.23v-1.23h-1.81v1.23h1.81Zm0,3.15v-1.26h-1.81v1.26h1.81Zm0,3.25v-1.23h-1.81v1.23h1.81Zm15.97-19.01h-4.14c-.16.82-.38,1.69-.66,2.61h3.91v14.51h-6.46l1.43,1.37c-.99,1.55-2.4,2.92-4.22,4.11l-1.4-1.92c1.77-1.24,3-2.43,3.7-3.56h-2.61v-14.51h2.93c.34-.99.56-1.86.66-2.61h-4.65v-2.24h11.51v2.24Zm-3.18,6.72v-1.86h-4.88v1.86h4.88Zm0,4.02v-1.92h-4.88v1.92h4.88Zm0,4.19v-2.1h-4.88v2.1h4.88Zm3.59,5.8l-1.61,1.81c-1.36-1.27-2.8-2.37-4.3-3.31l1.58-1.78c1.65,1,3.09,2.09,4.33,3.28Z"/>
    <path class="cls-1" d="m246.64,22.38h-8.21v14.33h-2.55V12.34h10.77v10.04Zm-2.57-6.14v-1.61h-5.65v1.61h5.65Zm0,3.88v-1.7h-5.65v1.7h5.65Zm9.48,12.66h-11.75v-8.13h11.75v8.13Zm-2.44-2.33v-3.5h-6.8v3.5h6.8Zm8.33,3.59c0,.9-.26,1.56-.78,2s-1.59.65-3.2.65c-.41,0-.87-.01-1.39-.04l-.83-2.5c1.85,0,2.92-.01,3.2-.04s.42-.23.42-.62v-11.12h-8.16v-10.04h10.74v21.7Zm-2.58-17.8v-1.61h-5.55v1.61h5.55Zm0,3.88v-1.7h-5.55v1.7h5.55Z"/>
    <path class="cls-1" d="m273.73,34.68c0,.58-.22,1.08-.65,1.5s-1.71.61-3.83.56l-.86-2.52c.63.07,1.17.11,1.64.11.5,0,.82-.05.96-.14.14-.09.22-.25.22-.46v-6.14h-3.17c-.27,3.78-.96,6.87-2.06,9.28l-2.24-1.39c1.19-2.7,1.78-6.17,1.78-10.42v-12.74h8.22v22.36Zm-2.52-16.11v-3.76h-3.14v3.76h3.14Zm0,6.55v-4.08h-3.14v4.08h3.14Zm17.94,9.7l-1.56,2.07c-1.21-.7-2.48-1.66-3.81-2.87-1.15,1.17-2.21,2.08-3.2,2.75l-1.75-1.89c1.34-.92,2.41-1.84,3.22-2.78-1.75-2.59-2.88-5.27-3.39-8.05h-.31v12.72h-2.59V12.19h12.55c0,1.51-.13,2.98-.38,4.4-.25,1.42-.54,2.3-.86,2.66-.32.36-.72.64-1.19.85s-1.71.31-3.71.31l-1.01-2.41c2.35.06,3.64-.09,3.86-.43.21-.34.41-1.32.57-2.94h-7.23v6.98h9.73c-.36,4.48-1.31,7.91-2.85,10.3.84.86,2.15,1.83,3.91,2.9Zm-3.8-10.77h-4.08c.35,1.89,1.1,3.81,2.27,5.78.76-1.29,1.36-3.21,1.81-5.78Z"/>
    <path class="cls-1" d="m303.87,20.52c-.33,2.76-.84,4.97-1.54,6.63l-2.02-.57c.5-1.27.85-2.51,1.07-3.73h-1.56v11.4c0,.58-.16,1.07-.48,1.46s-.67.67-1.04.81c-.38.15-1.02.22-1.93.22-.43,0-.92-.02-1.46-.06l-.83-2.47c.54.04,1.41.06,2.61.06.46,0,.69-.28.69-.85v-6.6c-1.02,2.59-2.24,4.7-3.67,6.34l-1.4-2.41c1.66-1.84,3.14-4.47,4.44-7.89h-4.19v-2.33h5.58c-.83-.96-2.13-2.04-3.91-3.24l1.72-1.64c.63.34,1.36.85,2.21,1.53.67-.71,1.36-1.57,2.06-2.57h-6.77v-2.36h9.81v2.19c-.72,1.25-1.79,2.69-3.21,4.3.2.18.42.43.66.76l-1.18,1.02h4.33Zm12.52,6.46c-.32,4.68-.61,7.3-.86,7.84-.26.55-.64,1-1.15,1.37-.51.36-1.43.55-2.77.55-.38,0-.84-.02-1.36-.06l-.84-2.36c.5.04,1.08.06,1.72.06.88,0,1.44-.08,1.68-.24.24-.16.45-.57.61-1.23.16-.66.28-1.84.36-3.55h-3.77c-.34,1.58-1.19,3.06-2.57,4.44s-2.99,2.41-4.83,3.09l-1.58-2.05c3.52-1.33,5.66-3.15,6.41-5.48h-3.7v-2.38h4.22c.15-.99.23-1.74.25-2.24l2.45.13c0,.33-.06,1.03-.18,2.12h5.92Zm1.5-3.67l-1.15,2.19c-2.52-.6-4.66-1.54-6.41-2.82-1.68,1.14-3.39,2.03-5.12,2.66l-1.35-2.17c1.57-.45,3.08-1.15,4.54-2.1-.55-.51-1.22-1.29-2.02-2.33l1.93-1.32c.89,1.08,1.54,1.79,1.95,2.16.98-1.04,1.76-2.14,2.33-3.31h-4.96c-1.09,1.34-2.15,2.48-3.17,3.42l-1.72-1.67c1.93-1.67,3.72-3.9,5.4-6.69l2.27.83c-.23.47-.6,1.06-1.09,1.78h7.91v2.33h-2.16c-.8,2.04-1.78,3.62-2.93,4.74,1.48,1.08,3.39,1.84,5.75,2.3Z"/>
  </g>
</svg>